<svg xmlns="http://www.w3.org/2000/svg" viewBox="0 0 512 512">
  <path fill="#2c3e50" d="M480,256c0,123.71-100.29,224-224,224S32,379.71,32,256,132.29,32,256,32,480,132.29,480,256Z" opacity="0"/>
  <path fill="#2c3e50" d="M470.39,266.55c-19.32,86.1-89.94,150-174.3,156.83,0,0-43.13-115-222.09-115,0,0-26.31-17.58-26.31-31.11,0-9.77,13.78-26.31,38.84-26.31,0,0-43.64-56.42,48.62-80,0,0,97.74-37.33,214.47,18.07,0,0,55.41,23.3,66.69,16.05S459.11,171.8,459.11,171.8c-34.33,1-60.64,29.32-73.93,43.64,0,0,85.22,9.28,85.22,51.11Z"/>
</svg>
